<svg xmlns="http://www.w3.org/2000/svg" viewBox="0 0 1440 320"><path fill="#71706D" fill-opacity="1" d="M0,0L20,48C40,96,80,192,120,208C160,224,200,160,240,112C280,64,320,32,360,42.7C400,53,440,107,480,133.3C520,160,560,160,600,144C640,128,680,96,720,117.3C760,139,800,213,840,202.7C880,192,920,96,960,69.3C1000,43,1040,85,1080,128C1120,171,1160,213,1200,197.3C1240,181,1280,107,1320,90.7C1360,75,1400,117,1420,138.7L1440,160L1440,320L1420,320C1400,320,1360,320,1320,320C1280,320,1240,320,1200,320C1160,320,1120,320,1080,320C1040,320,1000,320,960,320C920,320,880,320,840,320C800,320,760,320,720,320C680,320,640,320,600,320C560,320,520,320,480,320C440,320,400,320,360,320C320,320,280,320,240,320C200,320,160,320,120,320C80,320,40,320,20,320L0,320Z"/></svg>